<svg width="19" height="20" viewBox="0 0 19 20" fill="none" xmlns="http://www.w3.org/2000/svg">
<path d="M7.825 2.317C8.251 0.561 10.749 0.561 11.175 2.317C11.2389 2.5808 11.3642 2.82578 11.5407 3.032C11.7172 3.23822 11.9399 3.39985 12.1907 3.50375C12.4414 3.60764 12.7132 3.65085 12.9838 3.62987C13.2544 3.60889 13.5162 3.5243 13.748 3.383C15.291 2.443 17.058 4.209 16.118 5.753C15.9769 5.98466 15.8924 6.24634 15.8715 6.51677C15.8506 6.78721 15.8938 7.05877 15.9975 7.30938C16.1013 7.55999 16.2627 7.78258 16.4687 7.95905C16.6747 8.13553 16.9194 8.26091 17.183 8.325C18.939 8.751 18.939 11.249 17.183 11.675C16.9192 11.7389 16.6742 11.8642 16.468 12.0407C16.2618 12.2172 16.1001 12.4399 15.9963 12.6907C15.8924 12.9414 15.8491 13.2132 15.8701 13.4838C15.8911 13.7544 15.9757 14.0162 16.117 14.248C17.057 15.791 15.291 17.558 13.747 16.618C13.5153 16.4769 13.2537 16.3924 12.9832 16.3715C12.7128 16.3506 12.4412 16.3938 12.1906 16.4975C11.94 16.6013 11.7174 16.7627 11.5409 16.9687C11.3645 17.1747 11.2391 17.4194 11.175 17.683C10.749 19.439 8.251 19.439 7.825 17.683C7.76108 17.4192 7.63578 17.1742 7.45929 16.968C7.2828 16.7618 7.06011 16.6001 6.80935 16.4963C6.55859 16.3924 6.28683 16.3491 6.01621 16.3701C5.74559 16.3911 5.48375 16.4757 5.252 16.617C3.709 17.557 1.942 15.791 2.882 14.247C3.0231 14.0153 3.10755 13.7537 3.12848 13.4832C3.14942 13.2128 3.10624 12.9412 3.00247 12.6906C2.8987 12.44 2.73726 12.2174 2.53127 12.0409C2.32529 11.8645 2.08056 11.7391 1.817 11.675C0.061 11.249 0.061 8.751 1.817 8.325C2.0808 8.26108 2.32578 8.13578 2.532 7.95929C2.73822 7.7828 2.89985 7.56011 3.00375 7.30935C3.10764 7.05859 3.15085 6.78683 3.12987 6.51621C3.10889 6.24559 3.0243 5.98375 2.883 5.752C1.943 4.209 3.709 2.442 5.253 3.382C6.253 3.99 7.549 3.452 7.825 2.317Z" stroke="#6E7191" stroke-linecap="round" stroke-linejoin="round"/>
<path d="M9.5 13C11.1569 13 12.5 11.6569 12.5 10C12.5 8.34315 11.1569 7 9.5 7C7.84315 7 6.5 8.34315 6.5 10C6.5 11.6569 7.84315 13 9.5 13Z" stroke="#6E7191" stroke-linecap="round" stroke-linejoin="round"/>
</svg>
