<svg width="24" height="24" viewBox="0 0 24 24" fill="none" xmlns="http://www.w3.org/2000/svg">
<g clip-path="url(#clip0_3_805)">
<path d="M5.01107 11.4268C5.01105 11.2928 5.03762 11.1601 5.08926 11.0363C5.1409 10.9125 5.21659 10.8001 5.31198 10.7056C5.40737 10.611 5.52059 10.5362 5.64512 10.4853C5.76966 10.4344 5.90305 10.4086 6.03766 10.4092L7.73963 10.4148C8.011 10.4148 8.27126 10.5221 8.46315 10.7132C8.65504 10.9042 8.76284 11.1634 8.76284 11.4336V17.8419C8.95457 17.7854 9.20046 17.7251 9.46983 17.6621C9.65686 17.6183 9.82355 17.5129 9.94286 17.3629C10.0622 17.2129 10.1271 17.0272 10.1272 16.8359V8.88692C10.1272 8.7531 10.1536 8.62059 10.205 8.49695C10.2565 8.37331 10.3318 8.26097 10.4268 8.16634C10.5219 8.07171 10.6347 7.99664 10.7588 7.94542C10.883 7.8942 11.0161 7.86783 11.1505 7.86782H12.8558C13.1272 7.86786 13.3874 7.97522 13.5793 8.16628C13.7712 8.35735 13.879 8.61647 13.879 8.88667V16.2646C13.879 16.2646 14.3058 16.0925 14.7218 15.9177C14.8763 15.8527 15.0081 15.7437 15.1009 15.6045C15.1936 15.4654 15.2431 15.3021 15.2433 15.1351V6.33933C15.2432 6.20554 15.2697 6.07305 15.3211 5.94944C15.3725 5.82583 15.4479 5.71351 15.5429 5.6189C15.6379 5.52429 15.7507 5.44924 15.8748 5.39804C15.999 5.34683 16.132 5.32048 16.2664 5.32048H17.9717C18.2431 5.32048 18.5034 5.42782 18.6953 5.61889C18.8872 5.80996 18.995 6.06911 18.995 6.33933V13.5821C20.4735 12.5152 21.9719 11.2319 23.161 9.68888C23.3335 9.46489 23.4477 9.20187 23.4933 8.92328C23.5389 8.64468 23.5146 8.35918 23.4224 8.09223C22.6179 5.75747 21.1087 3.72715 19.1013 2.27888C17.0939 0.8306 14.6862 0.0350686 12.2075 0.00105738C5.52346 -0.0883488 -0.000537722 5.34459 0.000118871 12.0009C-0.00644403 14.1072 0.545646 16.1779 1.60056 18.0036C1.74605 18.2533 1.96007 18.4565 2.2175 18.5893C2.47494 18.722 2.76508 18.7789 3.05385 18.7532C3.37648 18.7249 3.77816 18.685 4.25566 18.6292C4.4635 18.6056 4.65538 18.5068 4.79476 18.3515C4.93413 18.1961 5.01127 17.9952 5.01148 17.7869V11.4268" fill="#FCFCFC"/>
<path d="M4.96584 21.7043C6.75953 23.0064 8.87922 23.788 11.0904 23.9626C13.3016 24.1372 15.5181 23.6979 17.4947 22.6935C19.4712 21.6891 21.1308 20.1586 22.2898 18.2714C23.4488 16.3841 24.0621 14.2137 24.0617 12.0003C24.0617 11.724 24.0489 11.4508 24.0304 11.179C19.6373 17.717 11.526 20.7735 4.96576 21.7045" fill="#FCFCFC"/>
</g>
<defs>
<clipPath id="clip0_3_805">
<rect width="24" height="24" fill="white"/>
</clipPath>
</defs>
</svg>
